HIERARCHY
ROOT Hips
{
	OFFSET -0.001795 -0.223333 0.028219
	CHANNELS 6 Xposition Yposition Zposition Zrotation Yrotation Xrotation 
	JOINT LeftUpLeg
	{
		OFFSET 0.069520 -0.091406 -0.006815
		CHANNELS 3 Zrotation Yrotation Xrotation
		JOINT LeftLeg
		{
			OFFSET 0.034277 -0.375199 -0.004496
			CHANNELS 3 Zrotation Yrotation Xrotation
			JOINT LeftFoot
			{
				OFFSET -0.013596 -0.397961 -0.043693
				CHANNELS 3 Zrotation Yrotation Xrotation
				JOINT LeftToe
				{
					OFFSET 0.026358 -0.055791 0.119288
					CHANNELS 3 Zrotation Yrotation Xrotation
					End Site
					{
						OFFSET 0.000000 0.000000 0.000000
					}
				}
			}
		}
	}
	JOINT RightUpLeg
	{
		OFFSET -0.067670 -0.090522 -0.004320
		CHANNELS 3 Zrotation Yrotation Xrotation
		JOINT RightLeg
		{
			OFFSET -0.038290 -0.382569 -0.008850
			CHANNELS 3 Zrotation Yrotation Xrotation
			JOINT RightFoot
			{
				OFFSET 0.015774 -0.398415 -0.042312
				CHANNELS 3 Zrotation Yrotation Xrotation
				JOINT RightToe
				{
					OFFSET -0.025372 -0.048144 0.123348
					CHANNELS 3 Zrotation Yrotation Xrotation
					End Site
					{
						OFFSET 0.000000 0.000000 0.000000
					}
				}
			}
		}
	}
	JOINT Spine
	{
		OFFSET -0.002533 0.108963 -0.026696
		CHANNELS 3 Zrotation Yrotation Xrotation
		JOINT Spine1
		{
			OFFSET 0.005487 0.135180 0.001092
			CHANNELS 3 Zrotation Yrotation Xrotation
			JOINT Spine2
			{
				OFFSET 0.001457 0.052922 0.025425
				CHANNELS 3 Zrotation Yrotation Xrotation
				JOINT Neck
				{
					OFFSET -0.002778 0.213870 -0.042857
					CHANNELS 3 Zrotation Yrotation Xrotation
					JOINT Head
					{
						OFFSET 0.005152 0.064970 0.051349
						CHANNELS 3 Zrotation Yrotation Xrotation
						End Site
						{
							OFFSET 0.000000 0.000000 0.000000
						}
					}
				}
				JOINT LeftShoulder
				{
					OFFSET 0.078845 0.121749 -0.034090
					CHANNELS 3 Zrotation Yrotation Xrotation
					JOINT LeftArm
					{
						OFFSET 0.090977 0.030469 -0.008868
						CHANNELS 3 Zrotation Yrotation Xrotation
						JOINT LeftForeArm
						{
							OFFSET 0.259612 -0.012772 -0.027456
							CHANNELS 3 Zrotation Yrotation Xrotation
							JOINT LeftHand
							{
								OFFSET 0.249234 0.008986 -0.001171
								CHANNELS 3 Zrotation Yrotation Xrotation
								End Site
								{
									OFFSET 0.000000 0.000000 0.000000
								}
							}
						}
					}
				}
				JOINT RightShoulder
				{
					OFFSET -0.081759 0.118833 -0.038615
					CHANNELS 3 Zrotation Yrotation Xrotation
					JOINT RightArm
					{
						OFFSET -0.096012 0.032551 -0.009143
						CHANNELS 3 Zrotation Yrotation Xrotation
						JOINT RightForeArm
						{
							OFFSET -0.253742 -0.013329 -0.021401
							CHANNELS 3 Zrotation Yrotation Xrotation
							JOINT RightHand
							{
								OFFSET -0.255298 0.007772 -0.005559
								CHANNELS 3 Zrotation Yrotation Xrotation
								End Site
								{
									OFFSET 0.000000 0.000000 0.000000
								}
							}
						}
					}
				}
			}
		}
	}
}
MOTION
Frames: 11
Frame Time: 0.050000
-0.431773 0.837044 0.200848 -10.277358 10.206077 6.986240 33.989419 5.613314 -45.378477 -27.545081 15.311795 58.954483 15.118309 29.857166 6.044408 0.000000 0.000000 0.000000 -6.854448 -0.028150 -49.242981 16.243979 -11.570015 55.578594 -1.028919 2.413728 -9.804487 0.000000 0.000000 0.000000 -1.952822 -1.579758 28.737791 -0.882864 0.616549 -5.682010 -4.649940 15.317279 6.567076 22.644762 -6.651717 -28.539855 0.000000 0.000000 0.000000 -6.315747 -8.289398 0.295817 -40.094855 -17.257356 1.317223 -3.985814 -79.066959 -2.816281 0.000000 0.000000 0.000000 7.584418 -3.330139 -0.105763 58.239316 21.458402 6.805881 140.069326 85.931877 155.016226 0.000000 0.000000 0.000000 
-0.304015 0.810400 0.211762 -9.856687 11.500433 4.331549 35.209157 4.995152 -41.533259 -23.488583 10.730802 53.706583 17.743763 34.879074 3.263036 0.000000 0.000000 0.000000 -9.683370 -1.433651 -45.966613 19.340412 -13.809102 53.504296 -2.197156 2.151012 -15.731915 0.000000 0.000000 0.000000 -3.532971 -1.332260 29.634528 -0.044365 0.278925 -5.166332 -3.908473 14.659335 5.422898 24.396050 -8.247017 -27.098030 0.000000 0.000000 0.000000 -10.575803 -11.901954 0.532457 -38.498686 -15.889028 1.565045 -10.827086 -78.516034 3.123498 0.000000 0.000000 0.000000 12.907541 -1.364009 1.643888 56.279514 19.684014 4.463708 98.192858 86.024961 110.301160 0.000000 0.000000 0.000000 
-0.170640 0.788389 0.225266 -10.577884 13.639151 1.828183 33.834997 3.546278 -37.965950 -26.283387 10.875423 51.086087 20.468662 41.838207 -3.583957 0.000000 0.000000 0.000000 -11.212538 -2.227356 -41.608837 15.086906 -12.077028 55.133920 -3.581088 1.448572 -23.341213 0.000000 0.000000 0.000000 -3.120842 -1.508892 27.989315 -1.492860 0.912868 -5.146326 -1.768840 12.080724 6.215283 24.631290 -8.799317 -26.921012 0.000000 0.000000 0.000000 -10.935660 -13.217121 1.323046 -39.787652 -18.277835 2.244500 -23.336171 -76.517477 13.334451 0.000000 0.000000 0.000000 15.702844 -2.658665 1.020865 56.342496 16.295078 2.129620 38.365382 83.809101 48.600501 0.000000 0.000000 0.000000 
-0.031884 0.784878 0.235929 -13.022520 16.662139 1.526038 30.609160 2.066889 -38.282677 -30.827933 12.276411 50.818396 24.551196 49.800662 -4.611537 0.000000 0.000000 0.000000 -11.124376 -2.554093 -39.553851 8.426652 -8.632436 56.481426 -3.014510 0.110885 -19.569112 0.000000 0.000000 0.000000 -0.590733 -2.013867 24.708899 -1.525289 1.013148 -6.470901 0.278725 10.397436 8.196330 23.439408 -7.731671 -28.415191 0.000000 0.000000 0.000000 -6.405496 -10.961899 1.578925 -42.404650 -22.415330 2.854656 -42.066101 -78.692582 29.168266 0.000000 0.000000 0.000000 16.501762 -5.821679 -0.694948 56.609468 12.058972 -0.071689 8.586802 80.670822 20.406579 0.000000 0.000000 0.000000 
0.112334 0.805616 0.241654 -16.060688 17.319723 1.974445 26.023818 0.773973 -35.093765 -31.971806 11.231857 46.243463 23.441335 49.962149 -8.131359 0.000000 0.000000 0.000000 -9.703391 -1.643194 -36.127667 4.486524 -5.741871 53.558358 -0.551028 0.803734 -5.480508 0.000000 0.000000 0.000000 1.460842 -2.025881 20.700578 -0.178125 0.496692 -6.701807 2.949883 11.076317 8.300405 20.663824 -7.511605 -23.673443 0.000000 0.000000 0.000000 -2.158522 -7.570463 1.427240 -43.278005 -22.957140 2.476377 -89.705093 -81.374761 73.676150 0.000000 0.000000 0.000000 11.084087 -9.243114 -2.958430 55.850046 4.995455 -2.456968 15.224735 82.804890 27.668711 0.000000 0.000000 0.000000 
0.260071 0.844893 0.242577 -18.605404 18.253616 3.288665 22.573267 -0.129403 -32.307469 -34.595512 10.137672 38.504872 23.430768 43.654458 4.824976 0.000000 0.000000 0.000000 -7.082411 -0.731489 -35.218093 5.269970 -5.589131 47.690350 -0.232386 -2.431545 6.504709 0.000000 0.000000 0.000000 5.907033 -2.432920 16.794006 0.740149 0.224391 -8.091201 1.934971 8.492839 10.446365 20.864145 -6.932979 -26.515510 0.000000 0.000000 0.000000 4.171120 0.355659 0.886523 -43.798144 -24.453791 1.915041 -140.416884 -80.041805 126.765948 0.000000 0.000000 0.000000 3.081539 -9.578908 -3.682446 55.637779 3.055078 -2.498055 28.619365 84.469440 40.525093 0.000000 0.000000 0.000000 
0.405674 0.886235 0.239153 -17.469149 19.527206 3.531650 19.184616 -0.850723 -32.655775 -36.729847 10.612867 39.352877 20.150133 34.164972 22.936734 0.000000 0.000000 0.000000 -5.532611 -0.391514 -35.227049 5.736542 -6.410179 48.640672 1.642669 -0.272359 12.014564 0.000000 0.000000 0.000000 7.214774 -2.662633 16.365477 -0.850596 0.828736 -7.757328 2.119030 8.185094 9.282458 20.459066 -7.360384 -24.165430 0.000000 0.000000 0.000000 3.124806 3.358684 -0.256494 -36.398032 -25.088207 1.820785 -179.396922 -80.017910 172.603175 0.000000 0.000000 0.000000 0.844748 -10.621219 -4.202065 51.475316 2.515184 -2.454024 51.768621 86.361475 63.996259 0.000000 0.000000 0.000000 
0.547088 0.919701 0.233065 -16.155001 18.797311 3.364061 23.768647 0.006198 -33.741324 -40.546826 13.517949 42.167929 15.822621 28.189796 28.470025 0.000000 0.000000 0.000000 -4.712214 -0.055118 -35.917887 8.915962 -8.442455 49.488026 3.821237 3.181551 13.185934 0.000000 0.000000 0.000000 6.720278 -2.766050 17.717726 -1.325791 1.026106 -8.509454 0.685958 10.409089 8.536274 17.203370 -4.459324 -26.421437 0.000000 0.000000 0.000000 2.930029 4.971051 -0.725976 -33.328440 -25.360805 1.704745 165.527933 -81.454469 -170.948671 0.000000 0.000000 0.000000 0.077328 -10.070829 -4.024917 50.168363 0.517919 -2.916090 -177.940920 86.727535 -160.232116 0.000000 0.000000 0.000000 
0.685905 0.938409 0.229262 -13.742722 17.948806 3.738975 30.356806 1.032170 -32.132791 -38.068613 13.080189 42.157978 16.434336 29.181648 26.184195 0.000000 0.000000 0.000000 -3.852577 0.273774 -36.829260 11.693662 -10.057131 49.615502 4.819369 4.597475 13.825400 0.000000 0.000000 0.000000 3.831626 -2.172589 18.148294 -1.260993 1.059752 -10.428097 -1.011806 11.126166 10.586065 20.095797 -5.284992 -29.126368 0.000000 0.000000 0.000000 3.072507 5.998545 -0.978949 -31.452324 -22.188080 0.952954 144.827291 -81.295511 -148.066357 0.000000 0.000000 0.000000 2.587927 -11.086089 -4.324952 52.467997 2.853846 -2.339069 -146.590292 83.415221 -123.222580 0.000000 0.000000 0.000000 
0.828349 0.933151 0.225029 -10.185583 17.001789 3.903200 35.870249 1.027929 -25.708997 -30.723053 9.162032 36.663046 17.193146 30.991406 19.365736 0.000000 0.000000 0.000000 -5.005069 0.102265 -35.426784 13.446201 -10.047690 46.059378 3.813407 4.800510 8.931604 0.000000 0.000000 0.000000 0.796951 -1.589380 18.726609 -3.702814 1.901416 -11.651038 0.045036 12.162441 10.813813 18.349947 -4.664295 -27.781888 0.000000 0.000000 0.000000 0.425198 5.013239 -1.704241 -33.085754 -19.737721 0.781597 143.332584 -82.860020 -147.474485 0.000000 0.000000 0.000000 3.091359 -13.344134 -5.289918 55.246513 0.022722 -3.421111 -167.226345 80.474737 -143.654179 0.000000 0.000000 0.000000 
0.980678 0.905498 0.215153 -8.247300 16.051409 3.921113 38.729580 0.156044 -19.077521 -21.704445 4.821109 26.938788 21.492448 33.973693 27.257498 0.000000 0.000000 0.000000 -6.793155 -0.317483 -34.399711 14.305613 -9.590724 43.054361 -0.892402 -1.256263 -2.585021 0.000000 0.000000 0.000000 -0.830747 -1.084320 17.275206 -1.928987 1.314776 -12.731322 -1.766492 9.755751 13.577099 20.512309 -4.790229 -33.223285 0.000000 0.000000 0.000000 -3.310345 8.356001 -4.206390 -33.561065 -12.630425 -0.699852 170.566420 -84.563292 -176.426387 0.000000 0.000000 0.000000 3.949965 -11.302201 -4.341301 60.219439 3.631877 -2.232041 -148.886044 81.043371 -123.718159 0.000000 0.000000 0.000000 
